<svg width="1000" height="820" xmlns="http://www.w3.org/2000/svg">
 <g>
  <title>background</title>
  <rect fill="none" id="canvas_background" height="822" width="1002" y="-1" x="-1"/>
 </g>

 <g>
  <title>Layer 1</title>
  <g stroke="null" id="svg_1">
   <g stroke="null" id="svg_2">
    <path stroke="null" id="svg_3" fill="#0000ff" d="m280.78882,308.93448c0,53.77081 0,107.56177 0,161.35269c0,17.99054 6.47528,25.79111 15.73184,27.83917c10.82217,2.39935 22.03616,-1.48587 24.73685,-2.03802c1.82724,-0.36142 3.49359,-1.04413 4.46759,-2.03796c0.35147,-0.34137 0.70255,-0.69272 1.04419,-1.04413c0.59222,-0.59229 5.42102,-2.97159 10.62152,-5.68228c3.33301,-1.73676 6.48535,-3.50372 9.30643,-5.14014c116.01495,-67.25372 232.02988,-134.50742 348.03458,-201.76114c35.67035,-20.67102 30.46991,-42.77769 -3.3327,-61.14973c-59.19202,-32.18623 -118.41455,-64.36238 -177.60657,-96.53854c-61.57166,-33.45117 -123.12274,-66.90233 -184.68433,-100.36353c-0.11035,-0.06023 -0.25101,-0.09035 -0.3913,-0.12048c-0.23102,-0.04015 -0.55237,-0.16063 -0.69272,-0.26102c-0.08063,-0.05019 -0.16092,-0.10039 -0.27115,-0.15059c-0.16089,-0.05019 -0.29108,-0.09036 -0.4317,-0.13051c-0.22098,-0.06023 -0.5119,-0.21082 -0.60233,-0.32126c-0.06033,-0.06024 -0.13049,-0.13051 -0.19089,-0.19075c-0.63239,-0.68268 -1.52612,-1.07421 -2.57996,-1.275c-1.58649,-0.29114 -12.15765,-3.83504 -22.73938,-0.50197c-21.70493,6.84686 -20.40988,41.84407 -20.40988,67.57498c-0.0101,73.99013 -0.0101,147.9702 -0.0101,221.94023zm297.54663,28.42142c-23.53204,13.62347 -47.02417,27.25696 -70.53659,40.89038c-20.50027,11.88663 -41.00055,23.76315 -61.50113,35.65982c-9.5976,5.56177 -10.80228,3.93539 -2.71057,-3.64432c13.07132,-12.22791 26.04208,-24.36551 38.74207,-36.28223c8.10147,-7.58978 16.37399,-14.80804 24.56628,-22.28745c8.48322,-7.75034 20.95221,-19.22537 36.25195,-33.3306c8.14203,-7.51953 13.57343,-14.84833 12.13782,-16.39432s-9.11584,3.40335 -17.19757,11.00314c-7.98108,7.5094 -17.21753,16.16339 -27.50781,25.80115c-35.65979,35.16794 -5.89313,4.12619 -80.5358,78.5882c-7.85086,7.83066 -21.99637,18.71338 -31.59387,24.26505c-10.42081,6.04376 -20.85168,12.08743 -31.28262,18.1311c-9.58746,5.57187 -11.03329,3.69449 -3.21265,-4.17633c55.5979,-55.98953 111.20584,-111.9791 166.80389,-167.9686c7.82092,-7.87091 20.30969,-7.72028 27.91956,0.37143c7.74023,8.22223 15.49072,16.46457 23.23102,24.69687c7.61993,8.06161 6.03387,19.11499 -3.57397,24.67673l0,-0.00003zm48.63068,-139.32628c1.56616,0.85333 3.13245,1.7067 4.70844,2.56007c24.47583,13.29211 105.02167,44.96629 50.35736,76.66058c-18.88391,10.93286 -37.74756,21.87576 -56.61182,32.81863c-9.58777,5.56183 -20.1391,7.12799 -23.55237,3.52386c-3.39307,-3.61417 -1.5459,-11.20395 4.11621,-16.94647c5.66211,-5.73248 9.35669,-11.3746 8.1922,-12.57932c-1.11426,-1.20471 -6.6062,2.49979 -12.27802,8.28244c-5.63232,5.78275 -14.1759,6.24448 -19.0752,1.0441c-4.87885,-5.22046 -2.60999,-15.85214 5.1604,-23.7832c13.16162,-13.42267 26.17249,-26.74489 38.86279,-39.64548c7.75977,-7.91103 11.45483,-15.75175 8.21198,-17.50865c-3.23285,-1.7569 -12.19806,3.20256 -19.99872,11.08345c-12.27802,12.35847 -24.31525,24.48602 -36.16162,36.41278c-7.80066,7.87088 -15.78186,12.52911 -17.77979,10.38071c-2.01776,-2.14841 2.67041,-10.27026 10.47107,-18.16121c12.2782,-12.40866 23.57239,-23.84348 33.5918,-33.99332c7.80042,-7.89093 13.8443,-14.44664 13.4928,-14.63736c-0.33142,-0.18073 -6.93713,6.04367 -14.76788,13.91454c-11.11359,11.20393 -22.25732,22.3978 -33.37091,33.60178c-7.80042,7.87085 -14.50671,13.84424 -14.97852,13.35236c-0.47211,-0.49194 5.49164,-7.27856 13.31213,-15.13939c13.08112,-13.17165 26.15265,-26.36334 39.25403,-39.53502c7.8205,-7.89093 16.25354,-13.12144 18.84363,-11.7059l0,0.00002zm-256.65631,-139.47691c74.8736,40.66947 149.72699,81.35902 224.59058,122.04858c9.74823,5.29074 11.29419,15.96259 3.49347,23.84349c-5.41077,5.4514 -10.8219,10.89272 -16.21326,16.33403c-7.82062,7.8709 -15.88232,12.39864 -18.04077,10.11969c-2.13818,-2.27892 -8.51324,0.50198 -14.19556,6.22438c-5.68219,5.72244 -15.01904,5.37108 -20.8219,-0.79309c-5.80261,-6.1541 -5.9231,-15.83209 -0.27063,-21.59467c5.64172,-5.77263 9.6676,-11.05334 8.96484,-11.80629c-0.70264,-0.75298 -6.11377,3.04189 -12.07709,8.46318c-5.98364,5.43127 -14.54712,5.873 -19.1452,0.98383c-4.59811,-4.88914 -3.57391,-13.34229 2.28894,-18.88403c5.85297,-5.54173 10.35071,-10.30037 10.04944,-10.6116c-0.29102,-0.31123 -5.2005,3.99567 -10.97314,9.63777c-5.77252,5.64214 -14.47662,5.94333 -19.45621,0.66261c-4.95938,-5.27068 -4.19647,-13.99487 1.71664,-19.47635c5.92316,-5.49156 8.7345,-12.04724 6.28467,-14.63741c-2.44937,-2.60019 -9.2262,-0.26102 -15.13934,5.23051c-5.91309,5.49153 -12.82037,7.69016 -15.44043,4.90926c-2.62042,-2.77086 0.04016,-9.48721 5.93332,-14.99883c5.8931,-5.5116 9.92868,-10.78227 8.99512,-11.7561c-0.93369,-0.98383 -6.31467,2.83113 -12.0271,8.53348c-5.72244,5.69232 -14.14548,6.2746 -18.84396,1.29507c-4.68823,-4.97955 -3.92542,-13.71379 1.70667,-19.50648c5.64209,-5.79272 9.07562,-11.66576 7.70026,-13.13152c-1.38544,-1.46573 -6.95721,1.61634 -12.44897,6.86694c-3.12201,3.00178 -6.44525,6.16416 -9.92874,9.5073c-0.20081,0.2108 -0.4017,0.40157 -0.61252,0.60233c-0.32138,0.3313 -4.89929,-3.97559 -10.22009,-9.6177c-5.32092,-5.64212 -6.24429,-13.56318 -2.06808,-17.67932c4.16647,-4.11616 4.92935,-8.87481 1.71677,-10.6317c-3.22253,-1.74686 -8.51337,-0.42164 -11.7962,2.96161c-3.28296,3.3933 -7.51941,4.46752 -9.45703,2.39942c-1.93781,-2.06812 -1.35535,-5.93327 1.31506,-8.64389c2.67029,-2.71063 2.49973,-2.89134 -0.21078,-0.22087s-5.0899,4.62815 -5.40121,4.29684c-0.32129,-0.34135 1.48572,-2.72067 4.00562,-5.30077c2.54016,-2.59016 1.77695,-6.23446 -1.71661,-8.1319c-3.49359,-1.89745 -7.69012,-2.07814 -9.39691,-0.41161c-1.69672,1.67657 -6.44531,-0.53208 -10.59143,-4.93936s-7.27863,-8.21221 -6.98755,-8.50336c0.28128,-0.29115 -0.41147,-1.03403 -1.55606,-1.65649c-1.14444,-0.62242 -6.38489,-5.70235 -11.70578,-11.35452c-5.33099,-5.6321 -1.76694,-5.92324 7.98114,-0.63249l0.00006,0.00002l0,0.00001zm-73.77924,2.63032c1.20459,-7.35886 2.82104,-13.86437 4.9292,-19.02461c4.20654,-10.2502 17.19754,-9.03543 21.16296,-4.80886c3.97562,4.21654 0.86346,14.01495 -6.91705,21.91594c-2.44946,2.48976 -4.91919,4.9996 -7.40912,7.52953c-7.76013,7.89093 -13.58325,5.32084 -11.76599,-5.61201l0,0.00001zm12.07727,7.48936c2.79108,-2.69055 5.59198,-5.36102 8.38312,-8.03149c8.01111,-7.67007 16.89606,-11.35452 19.84772,-8.22224c2.94153,3.12226 -1.16455,11.87658 -9.17596,19.54666c-6.50562,6.24449 -13.17184,12.62953 -19.97833,19.15511c-7.99152,7.68011 -14.42664,8.87481 -14.17572,2.67048c0.24109,-6.19429 7.08771,-17.44843 15.09918,-25.11849l0,-0.00002zm-0.94366,23.41182c6.90692,-6.626 13.73395,-13.17166 20.48044,-19.62698c8.01144,-7.67007 20.67093,-7.32871 28.26086,0.74293c55.81882,59.27242 111.63763,118.54485 167.47641,177.81725c7.58997,8.07166 7.40918,20.99231 -0.3913,28.85312c-52.29517,52.65646 -104.59036,105.31299 -156.87512,157.96942c-7.81079,7.87088 -14.15552,13.86438 -14.15552,13.37244c0,-0.4819 -6.59613,5.2305 -14.74777,12.76007c-2.29907,2.13834 -4.60818,4.25668 -6.91739,6.37494c-8.15176,7.50949 -19.35571,13.71381 -23.61252,10.72208c-4.2565,-2.98169 0.64246,-13.1315 8.87473,-20.5607c7.18839,-6.48541 14.37653,-12.99088 21.54456,-19.4964c8.20221,-7.44922 14.84833,-17.97049 14.84833,-23.48209c0,-5.50153 -6.57574,-3.82495 -14.68787,3.73468c-8.83435,8.2323 -17.66901,16.48462 -26.49359,24.71689c-8.112,7.57971 -16.14337,4.8089 -16.4043,-6.28467c-0.12042,-5.15018 -0.06039,-10.33054 0.0502,-15.32001c0.25089,-11.0835 4.39703,-23.76321 9.2562,-28.32104c2.91116,-2.72067 5.83276,-5.48154 8.79462,-8.25241c8.51324,-8.8045 16.98645,-17.53873 25.47986,-26.25287c7.72009,-7.9512 13.99463,-18.25162 13.99463,-23.00018c0,-4.75867 -6.37479,-2.26898 -14.23578,5.56177c-11.11349,11.0433 -22.02631,21.90588 -32.66803,32.4874c-1.68668,1.81717 -3.37329,3.60413 -5.05988,5.4212c-2.80081,2.98169 -5.08978,-1.55606 -5.08978,-10.14978c0,-8.57367 6.37469,-21.88586 14.22565,-29.71649c6.19431,-6.17422 12.3988,-12.33844 18.64307,-18.51263c1.41544,-1.54605 2.82108,-3.09216 4.22675,-4.62814c2.3291,-2.55002 -2.24911,1.62637 -10.22021,9.3266c-3.74472,3.61414 -7.30853,7.05768 -10.50125,10.12967c-7.9913,7.71024 -14.96878,14.24585 -15.46045,14.7579c-0.5123,0.50198 -0.9136,-2.64041 -0.9136,-7.00751s6.39496,-14.22574 14.28598,-22.01636c9.48703,-9.3667 18.9946,-18.71335 28.47171,-28.08008c7.90091,-7.77045 14.29578,-18.22141 14.29578,-23.33145c0,-5.08997 -6.25433,-2.77087 -13.9747,5.19037c-9.70798,10.00922 -19.40588,20.01843 -29.10403,30.02768c-7.71027,7.97128 -13.97473,9.6077 -13.97473,3.64432c0,-5.95337 6.25433,-17.22754 13.98486,-25.17871c9.90887,-10.21002 19.61679,-20.18915 29.05374,-29.88721c7.74033,-7.95117 14.01486,-20.01846 14.01486,-26.96573c0,-6.93719 -6.40503,-6.24448 -14.30594,1.53603c-9.43701,9.29648 -18.93448,18.65314 -28.4516,28.04997c-7.90091,7.77048 -14.29587,5.62204 -14.29587,-4.82892c0,-10.451 6.50525,-25.11848 14.51672,-32.78859c13.71371,-13.12143 27.42746,-26.3031 41.13144,-39.67552c0.23071,-0.2309 0.47186,-0.47188 0.70285,-0.70276c0.38138,-0.39153 0.69272,-3.02185 0.69272,-5.87303c0,-2.85118 -6.33505,1.22479 -14.13565,9.10568c-9.5976,9.69803 -19.19504,19.39606 -28.79266,29.10414c-7.79056,7.89091 -14.11545,6.75645 -14.11545,-2.51991c0,-9.28641 6.28476,-23.22105 14.05496,-31.13206c9.65808,-9.83861 19.29572,-19.64703 28.89331,-29.4053c7.7804,-7.90099 14.09549,-17.74959 14.09549,-22.01633c0,-4.26672 -6.46545,-1.46575 -14.4368,6.24449c-7.66003,7.39902 -17.2475,16.67537 -28.35114,27.42755c-7.97107,7.72029 -14.44666,13.85429 -14.44666,13.71379c-0.0199,-0.1707 6.40512,-6.56577 14.35614,-14.29605c10.25049,-9.98918 20.12903,-19.6069 28.43152,-27.64842c7.96127,-7.72028 14.43677,-14.11535 14.43677,-14.33623c0,-0.21082 -6.42523,5.8931 -14.35623,13.65353c-9.31653,9.11575 -18.83389,18.40219 -28.55212,27.87933c-7.93088,7.74037 -14.66751,9.00531 -14.98865,2.80099c-0.33151,-6.20435 5.88309,-17.50865 13.83423,-25.23897c9.77832,-9.51733 19.647,-19.14507 29.67624,-28.90336c7.95111,-7.74034 14.38654,-18.45235 14.38654,-23.94389c0,-5.49154 -6.38513,-3.60413 -14.24594,4.20649c-10.20996,10.13978 -20.40005,20.25946 -30.59998,30.37914c-7.86063,7.81062 -14.42636,7.75037 -14.47662,-0.14056c-0.03033,-7.89095 6.57584,-20.52047 14.56699,-28.19054l0,-0.00002l0,0.00004z"/>
    <path stroke="null" id="svg_4" fill="#0000ff" d="m491.12347,336.71338c-7.76025,7.91104 -7.42908,8.27246 0.74295,0.78311c11.505,-10.54135 23.01035,-21.07266 34.51547,-31.57382c2.78076,-2.80099 5.61194,-5.612 8.41278,-8.39288c4.64838,-4.62814 7.82098,-9.00534 7.13812,-9.76834c-0.7229,-0.75293 -7.5896,5.05988 -15.37018,12.96082c-11.79645,12.00711 -23.63266,23.99411 -35.43915,35.99112z"/>
   </g>
  </g>
  <g id="svg_5"/>
  <g id="svg_6"/>
  <g id="svg_7"/>
  <g id="svg_8"/>
  <g id="svg_9"/>
  <g id="svg_10"/>
  <g id="svg_11"/>
  <g id="svg_12"/>
  <g id="svg_13"/>
  <g id="svg_14"/>
  <g id="svg_15"/>
  <g id="svg_16"/>
  <g id="svg_17"/>
  <g id="svg_18"/>
  <g id="svg_19"/>
  <text font-weight="bold" xml:space="preserve" text-anchor="start" font-family="Oswald, sans-serif" font-size="220" id="svg_20" y="769.39844" x="267.75" stroke-width="0" fill="#000000">APK</text>
 </g>
</svg>