<?xml version="1.0" encoding="iso-8859-1"?>
<!-- Generator: Adobe Illustrator 16.0.0, SVG Export Plug-In . SVG Version: 6.00 Build 0)  -->
<!DOCTYPE svg PUBLIC "-//W3C//DTD SVG 1.1//EN" "http://www.w3.org/Graphics/SVG/1.1/DTD/svg11.dtd">
<svg xmlns="http://www.w3.org/2000/svg" xmlns:xlink="http://www.w3.org/1999/xlink" version="1.1" id="Capa_1" x="0px" y="0px" width="512px" height="512px" viewBox="0 0 47.902 47.902" style="enable-background:new 0 0 47.902 47.902;" xml:space="preserve">
<g>
	<g>
		<path d="M2.116,28.979c0,5.356,0,10.714,0,16.072c0,1.792,0.645,2.569,1.567,2.773c1.078,0.239,2.195-0.148,2.464-0.203    c0.182-0.036,0.348-0.104,0.445-0.203c0.035-0.034,0.07-0.069,0.104-0.104c0.059-0.059,0.54-0.296,1.058-0.566    c0.332-0.173,0.646-0.349,0.927-0.512c11.556-6.699,23.112-13.398,34.667-20.097c3.553-2.059,3.035-4.261-0.332-6.091    c-5.896-3.206-11.795-6.411-17.691-9.616C19.192,7.1,13.061,3.768,6.929,0.435C6.918,0.429,6.904,0.426,6.89,0.423    C6.867,0.419,6.835,0.407,6.821,0.397c-0.008-0.005-0.016-0.01-0.027-0.015C6.778,0.377,6.765,0.373,6.751,0.369    C6.729,0.363,6.7,0.348,6.691,0.337C6.685,0.331,6.678,0.324,6.672,0.318C6.609,0.25,6.52,0.211,6.415,0.191    c-0.158-0.029-1.211-0.382-2.265-0.05C1.988,0.823,2.117,4.309,2.117,6.872C2.116,14.242,2.116,21.611,2.116,28.979z     M31.754,31.81c-2.344,1.357-4.684,2.715-7.026,4.073c-2.042,1.184-4.084,2.367-6.126,3.552c-0.956,0.554-1.076,0.392-0.27-0.363    c1.302-1.218,2.594-2.427,3.859-3.614c0.807-0.756,1.631-1.475,2.447-2.22c0.845-0.772,2.087-1.915,3.611-3.32    c0.811-0.749,1.352-1.479,1.209-1.633s-0.908,0.339-1.713,1.096c-0.795,0.748-1.715,1.61-2.74,2.57    c-3.552,3.503-0.587,0.411-8.022,7.828c-0.782,0.78-2.191,1.864-3.147,2.417c-1.038,0.602-2.077,1.204-3.116,1.806    c-0.955,0.555-1.099,0.368-0.32-0.416c5.538-5.577,11.077-11.154,16.615-16.731c0.779-0.784,2.023-0.769,2.781,0.037    c0.771,0.819,1.543,1.64,2.314,2.46C32.869,30.155,32.711,31.256,31.754,31.81z M36.598,17.932    c0.156,0.085,0.312,0.17,0.469,0.255c2.438,1.324,10.461,4.479,5.016,7.636c-1.881,1.089-3.76,2.179-5.639,3.269    c-0.955,0.554-2.006,0.71-2.346,0.351c-0.338-0.36-0.154-1.116,0.41-1.688c0.564-0.571,0.932-1.133,0.816-1.253    c-0.111-0.12-0.658,0.249-1.223,0.825c-0.561,0.576-1.412,0.622-1.9,0.104c-0.486-0.52-0.26-1.579,0.514-2.369    c1.311-1.337,2.607-2.664,3.871-3.949c0.773-0.788,1.141-1.569,0.818-1.744c-0.322-0.175-1.215,0.319-1.992,1.104    c-1.223,1.231-2.422,2.439-3.602,3.627c-0.777,0.784-1.572,1.248-1.771,1.034c-0.201-0.214,0.266-1.023,1.043-1.809    c1.223-1.236,2.348-2.375,3.346-3.386c0.777-0.786,1.379-1.439,1.344-1.458c-0.033-0.018-0.691,0.602-1.471,1.386    c-1.107,1.116-2.217,2.231-3.324,3.347c-0.777,0.784-1.445,1.379-1.492,1.33c-0.047-0.049,0.547-0.725,1.326-1.508    c1.303-1.312,2.605-2.626,3.91-3.938C35.5,18.312,36.34,17.791,36.598,17.932z M11.033,4.039    c7.458,4.051,14.914,8.104,22.371,12.157c0.971,0.527,1.125,1.59,0.348,2.375c-0.539,0.543-1.078,1.085-1.615,1.627    c-0.779,0.784-1.582,1.235-1.797,1.008c-0.213-0.227-0.848,0.05-1.414,0.62c-0.566,0.57-1.496,0.535-2.074-0.079    c-0.578-0.613-0.59-1.577-0.027-2.151c0.562-0.575,0.963-1.101,0.893-1.176c-0.07-0.075-0.609,0.303-1.203,0.843    c-0.596,0.541-1.449,0.585-1.907,0.098c-0.458-0.487-0.356-1.329,0.228-1.881c0.583-0.552,1.031-1.026,1.001-1.057    c-0.029-0.031-0.518,0.398-1.093,0.96c-0.575,0.562-1.442,0.592-1.938,0.066c-0.494-0.525-0.418-1.394,0.171-1.94    c0.59-0.547,0.87-1.2,0.626-1.458c-0.244-0.259-0.919-0.026-1.508,0.521c-0.589,0.547-1.277,0.766-1.538,0.489    c-0.261-0.276,0.004-0.945,0.591-1.494c0.587-0.549,0.989-1.074,0.896-1.171c-0.093-0.098-0.629,0.282-1.198,0.85    c-0.57,0.567-1.409,0.625-1.877,0.129c-0.467-0.496-0.391-1.366,0.17-1.943c0.562-0.577,0.904-1.162,0.767-1.308    c-0.138-0.146-0.693,0.161-1.24,0.684c-0.311,0.299-0.642,0.614-0.989,0.947c-0.02,0.021-0.04,0.04-0.061,0.06    c-0.032,0.033-0.488-0.396-1.018-0.958c-0.53-0.562-0.622-1.351-0.206-1.761c0.415-0.41,0.491-0.884,0.171-1.059    c-0.321-0.174-0.848-0.042-1.175,0.295c-0.327,0.338-0.749,0.445-0.942,0.239c-0.193-0.206-0.135-0.591,0.131-0.861    c0.266-0.27,0.249-0.288-0.021-0.022s-0.507,0.461-0.538,0.428c-0.032-0.034,0.148-0.271,0.399-0.528    c0.253-0.258,0.177-0.621-0.171-0.81c-0.348-0.189-0.766-0.207-0.936-0.041c-0.169,0.167-0.642-0.053-1.055-0.492    s-0.725-0.818-0.696-0.847c0.028-0.029-0.041-0.103-0.155-0.165c-0.114-0.062-0.636-0.568-1.166-1.131    C9.707,3.541,10.062,3.512,11.033,4.039z M3.684,4.301C3.804,3.568,3.965,2.92,4.175,2.406c0.419-1.021,1.713-0.9,2.108-0.479    c0.396,0.42,0.086,1.396-0.689,2.183c-0.244,0.248-0.49,0.498-0.738,0.75C4.083,5.646,3.503,5.39,3.684,4.301z M4.887,5.047    c0.278-0.268,0.557-0.534,0.835-0.8C6.52,3.483,7.405,3.116,7.699,3.428c0.293,0.311-0.116,1.183-0.914,1.947    c-0.648,0.622-1.312,1.258-1.99,1.908C3.999,8.048,3.358,8.167,3.383,7.549C3.407,6.932,4.089,5.811,4.887,5.047z M4.793,7.379    c0.688-0.66,1.368-1.312,2.04-1.955c0.798-0.764,2.059-0.73,2.815,0.074c5.56,5.904,11.12,11.808,16.682,17.712    c0.756,0.804,0.738,2.091-0.039,2.874c-5.209,5.245-10.418,10.49-15.626,15.735c-0.778,0.784-1.41,1.381-1.41,1.332    c0-0.048-0.657,0.521-1.469,1.271c-0.229,0.213-0.459,0.424-0.689,0.635c-0.812,0.748-1.928,1.366-2.352,1.068    c-0.424-0.297,0.064-1.308,0.884-2.048c0.716-0.646,1.432-1.294,2.146-1.942c0.817-0.742,1.479-1.79,1.479-2.339    c0-0.548-0.655-0.381-1.463,0.372c-0.88,0.82-1.76,1.642-2.639,2.462c-0.808,0.755-1.608,0.479-1.634-0.626    c-0.012-0.513-0.006-1.029,0.005-1.526c0.025-1.104,0.438-2.367,0.922-2.821c0.29-0.271,0.581-0.546,0.876-0.822    c0.848-0.877,1.692-1.747,2.538-2.615c0.769-0.792,1.394-1.818,1.394-2.291c0-0.474-0.635-0.226-1.418,0.554    c-1.107,1.1-2.194,2.182-3.254,3.236c-0.168,0.181-0.336,0.359-0.504,0.54c-0.279,0.297-0.507-0.155-0.507-1.011    c0-0.854,0.635-2.18,1.417-2.96c0.617-0.615,1.235-1.229,1.857-1.844c0.141-0.154,0.281-0.308,0.421-0.461    c0.232-0.254-0.224,0.162-1.018,0.929c-0.373,0.36-0.728,0.703-1.046,1.009c-0.796,0.768-1.491,1.419-1.54,1.47    c-0.051,0.05-0.091-0.263-0.091-0.698s0.637-1.417,1.423-2.193c0.945-0.933,1.892-1.864,2.836-2.797    c0.787-0.774,1.424-1.815,1.424-2.324c0-0.507-0.623-0.276-1.392,0.517c-0.967,0.997-1.933,1.994-2.899,2.991    c-0.768,0.794-1.392,0.957-1.392,0.363c0-0.593,0.623-1.716,1.393-2.508c0.987-1.017,1.954-2.011,2.894-2.977    c0.771-0.792,1.396-1.994,1.396-2.686c0-0.691-0.638-0.622-1.425,0.153c-0.94,0.926-1.886,1.858-2.834,2.794    c-0.787,0.774-1.424,0.56-1.424-0.481c0-1.041,0.648-2.502,1.446-3.266c1.366-1.307,2.732-2.62,4.097-3.952    c0.023-0.023,0.047-0.047,0.07-0.07c0.038-0.039,0.069-0.301,0.069-0.585c0-0.284-0.631,0.122-1.408,0.907    c-0.956,0.966-1.912,1.932-2.868,2.899c-0.776,0.786-1.406,0.673-1.406-0.251c0-0.925,0.626-2.313,1.4-3.101    c0.962-0.98,1.922-1.957,2.878-2.929c0.775-0.787,1.404-1.768,1.404-2.193c0-0.425-0.644-0.146-1.438,0.622    c-0.763,0.737-1.718,1.661-2.824,2.732c-0.794,0.769-1.439,1.38-1.439,1.366C3.549,15.707,4.189,15.07,4.981,14.3    c1.021-0.995,2.005-1.953,2.832-2.754c0.793-0.769,1.438-1.406,1.438-1.428c0-0.021-0.64,0.587-1.43,1.36    c-0.928,0.908-1.876,1.833-2.844,2.777c-0.79,0.771-1.461,0.897-1.493,0.279C3.451,13.916,4.07,12.79,4.862,12.02    c0.974-0.948,1.957-1.907,2.956-2.879C8.61,8.37,9.251,7.303,9.251,6.756c0-0.547-0.636-0.359-1.419,0.419    C6.815,8.185,5.8,9.193,4.784,10.201c-0.783,0.778-1.437,0.772-1.442-0.014C3.339,9.401,3.997,8.143,4.793,7.379z" fill="#0000ff"/>
		<path d="M23.067,31.746c-0.773,0.788-0.74,0.824,0.074,0.078c1.146-1.05,2.292-2.099,3.438-3.145    c0.277-0.279,0.559-0.559,0.838-0.836c0.463-0.461,0.779-0.897,0.711-0.973c-0.072-0.075-0.756,0.504-1.531,1.291    C25.422,29.357,24.243,30.551,23.067,31.746z" fill="#0000ff"/>
	</g>
</g>
<g>
</g>
<g>
</g>
<g>
</g>
<g>
</g>
<g>
</g>
<g>
</g>
<g>
</g>
<g>
</g>
<g>
</g>
<g>
</g>
<g>
</g>
<g>
</g>
<g>
</g>
<g>
</g>
<g>
</g>
</svg>
