<svg width="1000" height="720" xmlns="http://www.w3.org/2000/svg">

 <g>
  <title>background</title>
  <rect fill="none" id="canvas_background" height="722" width="1002" y="-1" x="-1"/>
 </g>
 <g>
  <title>Layer 1</title>
  <g stroke="null" id="svg_1">
   <g stroke="null" id="svg_2">
    <path stroke="null" id="svg_3" fill="#0000ff" d="m313.6095,286.09433c0,52.87628 0,105.7724 0,158.66852c0,17.69122 6.36755,25.36206 15.47012,27.37604c10.64215,2.35947 21.66962,-1.46112 24.32538,-2.00412c1.79681,-0.35541 3.43549,-1.02673 4.39328,-2.00406c0.34552,-0.33569 0.69083,-0.68121 1.02676,-1.02673c0.58237,-0.58246 5.33081,-2.92218 10.44482,-5.58777c3.27753,-1.70789 6.37747,-3.44547 9.15161,-5.05466c114.08499,-66.13492 228.16995,-132.26981 342.2449,-198.40475c35.0769,-20.32716 29.96295,-42.06609 -3.27728,-60.13249c-58.2074,-31.6508 -116.44458,-63.29169 -174.65198,-94.93259c-60.54742,-32.8947 -121.07458,-65.78939 -181.61206,-98.69395c-0.10849,-0.05923 -0.24683,-0.08885 -0.38474,-0.11847c-0.22723,-0.03949 -0.54324,-0.15796 -0.68124,-0.25668c-0.07928,-0.04936 -0.1582,-0.09872 -0.26663,-0.14809c-0.15817,-0.04936 -0.28622,-0.08885 -0.42447,-0.12834c-0.21732,-0.05923 -0.50348,-0.20732 -0.59235,-0.31592c-0.05936,-0.05923 -0.1283,-0.12834 -0.18777,-0.18758c-0.6218,-0.67132 -1.50061,-1.05634 -2.53699,-1.25379c-1.56006,-0.2863 -11.95538,-3.77124 -22.36108,-0.49362c-21.3439,6.73295 -20.07034,41.14798 -20.07034,66.45083c-0.00995,72.75928 -0.00995,145.50867 -0.00995,218.24821zm292.59686,27.94861c-23.14069,13.39682 -46.242,26.8035 -69.36322,40.21014c-20.15924,11.68887 -40.31845,23.36786 -60.47809,35.06659c-9.43793,5.46927 -10.62256,3.86993 -2.66541,-3.58371c12.85382,-12.02448 25.60886,-23.96017 38.09753,-35.67865c7.96667,-7.4635 16.10162,-14.56171 24.15759,-21.91666c8.3421,-7.62143 20.60358,-18.90555 35.64893,-32.77618c8.00653,-7.39441 13.34766,-14.60126 11.93591,-16.12158s-8.96429,3.34674 -16.91156,10.82013c-7.84833,7.38449 -16.93103,15.89447 -27.05017,25.37192c-35.06659,34.58289 -5.7951,4.05756 -79.19604,77.28082c-7.72028,7.70044 -21.63043,18.4021 -31.0683,23.86145c-10.24747,5.94318 -20.50485,11.88635 -30.76221,17.8295c-9.42795,5.47916 -10.84976,3.63303 -3.15924,-4.1069c54.67303,-55.05811 109.35596,-110.11627 164.02905,-165.17438c7.69073,-7.73993 19.97186,-7.59183 27.45508,0.36526c7.61157,8.08548 15.23309,16.19067 22.8446,24.28601c7.49316,7.92752 5.93341,18.797 -3.51447,24.26624zm47.82159,-137.00856c1.54016,0.83914 3.08032,1.6783 4.63013,2.51747c24.06873,13.071 103.27466,44.21828 49.51965,75.3853c-18.5697,10.75102 -37.11951,21.51189 -55.67004,32.27272c-9.42822,5.4693 -19.80402,7.0094 -23.16058,3.46524c-3.33667,-3.55405 -1.52026,-11.01758 4.04773,-16.66455c5.56793,-5.63712 9.20111,-11.18539 8.05591,-12.37006c-1.0957,-1.18469 -6.49622,2.45819 -12.07379,8.14465c-5.53845,5.68652 -13.94,6.14059 -18.75775,1.02673c-4.79779,-5.13364 -2.56659,-15.58844 5.07446,-23.38759c12.94275,-13.19936 25.73718,-26.29996 38.21625,-38.98595c7.6308,-7.77942 11.26428,-15.48972 8.07544,-17.21739c-3.17902,-1.72766 -11.99512,3.14929 -19.66602,10.89908c-12.07379,12.15289 -23.91083,24.07869 -35.56012,35.80704c-7.6709,7.73993 -15.51923,12.32069 -17.48395,10.20802c-1.98419,-2.11269 2.62598,-10.09943 10.29688,-17.85909c12.07385,-12.20224 23.18024,-23.44684 33.03302,-33.42783c7.67059,-7.75966 13.61389,-14.20631 13.26837,-14.39386c-0.32599,-0.17772 -6.82184,5.94313 -14.52234,13.68306c-10.92859,11.01755 -21.88708,22.02522 -32.81573,33.04279c-7.67059,7.73991 -14.26538,13.61397 -14.72931,13.13026c-0.46429,-0.48376 5.40021,-7.15749 13.09064,-14.88756c12.86346,-12.95253 25.71765,-25.92479 38.60101,-38.87733c7.69043,-7.75966 15.98322,-12.90317 18.53015,-11.51117zm-252.38672,-137.15664c73.62805,39.99292 147.23633,80.00557 220.85443,120.01823c9.58612,5.20273 11.10638,15.69705 3.43549,23.44684c-5.32086,5.36072 -10.64203,10.71153 -15.94373,16.06235c-7.69049,7.73994 -15.61804,12.19237 -17.7406,9.95132c-2.10266,-2.24101 -8.37164,0.49362 -13.95947,6.12086c-5.58759,5.62723 -14.7691,5.28171 -20.4754,-0.77991c-5.70618,-6.05174 -5.82458,-15.56871 -0.26624,-21.23544c5.54797,-5.67661 9.5069,-10.86946 8.81573,-11.60988c-0.69086,-0.74046 -6.01208,2.99129 -11.87616,8.3224c-5.88403,5.34093 -14.30511,5.7753 -18.82672,0.96745c-4.52155,-4.80782 -3.51447,-13.12035 2.25085,-18.5699c5.75568,-5.44954 10.17847,-10.12901 9.88226,-10.43506c-0.28619,-0.30605 -5.11389,3.92918 -10.79059,9.47745c-5.67645,5.54826 -14.23578,5.84445 -19.13251,0.65158c-4.87689,-5.183 -4.12671,-13.76207 1.68805,-19.15237c5.82465,-5.40018 8.58923,-11.84683 6.18018,-14.39389c-2.40869,-2.55695 -9.07275,-0.25668 -14.88754,5.14349c-5.8147,5.40019 -12.60706,7.56223 -15.18359,4.82759c-2.57681,-2.72478 0.03949,-9.32939 5.83459,-14.74931c5.79514,-5.41992 9.76358,-10.60291 8.84558,-11.56053c-0.91821,-0.96748 -6.20963,2.78402 -11.82706,8.39151c-5.62726,5.59763 -13.91013,6.17023 -18.53049,1.27354c-4.6102,-4.8967 -3.86011,-13.48565 1.67831,-19.18199c5.54819,-5.69636 8.92462,-11.47169 7.57214,-12.91306c-1.36243,-1.44135 -6.84146,1.58945 -12.24188,6.7527c-3.0701,2.95184 -6.33804,6.06162 -9.76358,9.34912c-0.19742,0.20731 -0.39505,0.39489 -0.60229,0.59233c-0.31607,0.32579 -4.81781,-3.90945 -10.05011,-9.4577c-5.23239,-5.54827 -6.14044,-13.33756 -2.03366,-17.38523c4.09714,-4.04767 4.84729,-8.72717 1.68814,-10.45483c-3.16888,-1.71779 -8.3717,-0.41463 -11.59995,2.91235c-3.22827,3.33685 -7.39429,4.3932 -9.29965,2.3595c-1.90555,-2.03371 -1.33282,-5.83456 1.29315,-8.5001c2.62592,-2.66553 2.4581,-2.84324 -0.20728,-0.21719s-5.00519,4.55116 -5.31134,4.22536c-0.31598,-0.33566 1.46094,-2.67541 3.939,-5.2126c2.49789,-2.54707 1.74738,-6.13074 -1.68808,-7.99662c-3.43549,-1.86588 -7.56219,-2.04357 -9.24063,-0.40476c-1.66849,1.64868 -6.33804,-0.52323 -10.41522,-4.8572s-7.15753,-8.07559 -6.87134,-8.36189c0.27667,-0.2863 -0.4046,-1.01685 -1.53012,-1.62894c-1.1254,-0.61208 -6.27872,-5.60749 -11.51105,-11.16563c-5.24231,-5.5384 -1.73752,-5.8247 7.84836,-0.62196zm-72.55191,2.58656c1.18457,-7.23644 2.77414,-13.63373 4.84723,-18.70812c4.1366,-10.07968 16.91147,-8.88512 20.81094,-4.72886c3.90945,4.14639 0.84903,13.78181 -6.802,21.55136c-2.40875,2.44834 -4.83734,4.91643 -7.28589,7.40427c-7.63107,7.75967 -13.35727,5.23234 -11.57028,-5.51865zm11.8764,7.36477c2.74469,-2.64579 5.49896,-5.27184 8.24365,-7.89788c7.87787,-7.54248 16.61499,-11.16564 19.51758,-8.08546c2.89258,3.07031 -1.1452,11.679 -9.02335,19.22148c-6.3974,6.14061 -12.9527,12.41943 -19.64594,18.83646c-7.85858,7.55236 -14.18665,8.72717 -13.93991,2.62605c0.23706,-6.09125 6.96979,-17.15816 14.84796,-24.70064zm-0.92795,23.02234c6.79202,-6.51576 13.50549,-12.95253 20.13974,-19.30046c7.87817,-7.54248 20.32703,-7.20681 27.79074,0.73056c54.8902,58.2864 109.78049,116.57279 164.69031,174.85917c7.46368,7.93738 7.28595,20.64311 -0.38477,28.37315c-51.42517,51.78052 -102.8504,103.56107 -154.26547,155.34152c-7.68079,7.73996 -13.92001,13.63376 -13.92001,13.14999c0,-0.47388 -6.48633,5.14349 -14.50241,12.54779c-2.2608,2.10278 -4.53156,4.18588 -6.80234,6.26892c-8.01614,7.38455 -19.03369,13.48566 -23.21967,10.5437c-4.1857,-2.9321 0.63174,-12.91306 8.72711,-20.21863c7.06873,-6.37753 14.13736,-12.77478 21.18607,-19.17209c8.06583,-7.32529 14.60132,-17.67151 14.60132,-23.09146c0,-5.41 -6.46634,-3.76135 -14.44345,3.67255c-8.68738,8.09534 -17.37509,16.21039 -26.05289,24.30573c-7.97699,7.45361 -15.87476,4.72888 -16.13141,-6.18011c-0.11841,-5.06448 -0.05939,-10.15866 0.04938,-15.06519c0.24673,-10.89908 4.32394,-23.36789 9.10223,-27.84991c2.86276,-2.67538 5.73578,-5.39032 8.64832,-8.11511c8.37164,-8.65805 16.70386,-17.24698 25.05591,-25.81616c7.59174,-7.81891 13.76187,-17.94797 13.76187,-22.61758c0,-4.6795 -6.26871,-2.2312 -13.99893,5.46927c-10.92862,10.85962 -21.65994,21.54147 -32.1246,31.94699c-1.6586,1.7869 -3.31714,3.54413 -4.97568,5.33102c-2.75427,2.9321 -5.00516,-1.53021 -5.00516,-9.98093c0,-8.43103 6.26871,-21.52179 13.98904,-29.2222c6.09128,-6.0715 12.19254,-12.13312 18.33295,-18.20462c1.39188,-1.52032 2.77414,-3.04071 4.1564,-4.55118c2.29037,-2.50757 -2.21167,1.59933 -10.05014,9.17145c-3.68246,3.55405 -7.18701,6.94028 -10.3266,9.96118c-7.85834,7.58197 -14.7197,14.00888 -15.20325,14.51239c-0.50378,0.49365 -0.89841,-2.59647 -0.89841,-6.8909s6.2886,-13.98914 14.04837,-21.65012c9.32922,-9.21088 18.67856,-18.40204 27.99802,-27.61298c7.76941,-7.64117 14.05798,-17.91829 14.05798,-22.94333c0,-5.00529 -6.15027,-2.72478 -13.74222,5.10402c-9.54645,9.84273 -19.0831,19.68544 -28.61987,29.52818c-7.582,7.83865 -13.74228,9.44785 -13.74228,3.58368c0,-5.85431 6.15033,-16.94095 13.75226,-24.75986c9.74399,-10.04021 19.29037,-19.85332 28.5704,-29.39003c7.61157,-7.81891 13.78171,-19.68547 13.78171,-26.51714c0,-6.82179 -6.29846,-6.14061 -14.06793,1.51047c-9.28009,9.14182 -18.61948,18.34283 -27.97839,27.58336c-7.76944,7.6412 -14.05804,5.52852 -14.05804,-4.7486c0,-10.27713 6.39706,-24.70064 14.2753,-32.24313c13.48557,-12.90315 26.97119,-25.86555 40.44717,-39.01553c0.22687,-0.22705 0.46402,-0.464 0.69116,-0.69107c0.37503,-0.38501 0.68115,-2.97157 0.68115,-5.77533c0,-2.80374 -6.22961,1.20442 -13.90051,8.95422c-9.43793,9.53671 -18.87573,19.07341 -28.31366,28.61998c-7.66098,7.75966 -13.88062,6.64407 -13.88062,-2.47798c0,-9.13193 6.18018,-22.83475 13.8212,-30.61417c9.49734,-9.67493 18.97467,-19.32021 28.4126,-28.91614c7.65103,-7.76955 13.86099,-17.45432 13.86099,-21.65008c0,-4.19574 -6.35791,-1.44136 -14.19662,6.14062c-7.53262,7.27592 -16.96057,16.39798 -27.87955,26.97127c-7.83844,7.59186 -14.20627,13.62384 -14.20627,13.48566c-0.01962,-0.16785 6.29852,-6.45654 14.11734,-14.05824c10.07993,-9.823 19.79416,-19.28072 27.95856,-27.18848c7.82877,-7.59183 14.19659,-13.88052 14.19659,-14.09772c0,-0.20731 -6.31839,5.79507 -14.11737,13.42641c-9.16159,8.9641 -18.52063,18.09604 -28.07721,27.41554c-7.79895,7.61159 -14.42352,8.85551 -14.73926,2.75439c-0.32602,-6.10112 5.78516,-17.2174 13.60403,-24.81911c9.61566,-9.35901 19.32016,-18.82658 29.18259,-28.42252c7.81885,-7.61159 14.14722,-18.14539 14.14722,-23.54557c0,-5.40018 -6.27893,-3.54418 -14.00894,4.13652c-10.04019,9.97108 -20.06073,19.92242 -30.09094,29.87376c-7.72995,7.68069 -14.18643,7.62145 -14.23584,-0.13821c-0.02982,-7.75968 6.46643,-20.17911 14.32468,-27.72158z"/>
    <path stroke="null" id="svg_4" fill="#0000ff" d="m520.44513,313.4111c-7.63116,7.77945 -7.30548,8.13483 0.73059,0.77008c11.31366,-10.366 22.62762,-20.72211 33.94135,-31.04858c2.73444,-2.75439 5.51855,-5.51865 8.27283,-8.25327c4.57104,-4.55115 7.6908,-8.85553 7.01923,-9.60583c-0.71069,-0.74042 -7.46326,4.97568 -15.11432,12.74521c-11.60022,11.80734 -23.23956,23.59494 -34.84967,35.3924z"/>
   </g>
  </g>
  <g id="svg_5"/>
  <g id="svg_6"/>
  <g id="svg_7"/>
  <g id="svg_8"/>
  <g id="svg_9"/>
  <g id="svg_10"/>
  <g id="svg_11"/>
  <g id="svg_12"/>
  <g id="svg_13"/>
  <g id="svg_14"/>
  <g id="svg_15"/>
  <g id="svg_16"/>
  <g id="svg_17"/>
  <g id="svg_18"/>
  <g id="svg_19"/>
  <text font-weight="bold" xml:space="preserve" text-anchor="start" font-family="Oswald, sans-serif" font-size="220" id="svg_20" y="669.39063" x="267.75" stroke-width="0" fill="#000000">APK</text>
 </g>
</svg>