<svg width="1000" height="820" xmlns="http://www.w3.org/2000/svg">
 <g>
  <title>background</title>
  <rect fill="none" id="canvas_background" height="822" width="1002" y="-1" x="-1"/>
 </g>

 <g>
  <title>Layer 1</title>
  <g id="svg_13"/>
  <g id="svg_14"/>
  <g id="svg_15"/>
  <g id="svg_16"/>
  <g id="svg_17"/>
  <g id="svg_18"/>
  <g id="svg_19"/>
  <g id="svg_20"/>
  <g id="svg_21"/>
  <g id="svg_22"/>
  <g id="svg_23"/>
  <g id="svg_24"/>
  <g id="svg_25"/>
  <g id="svg_26"/>
  <g id="svg_27"/>
  <g stroke="null" id="svg_28">
   <g stroke="null" id="svg_1">
    <g stroke="null" id="svg_2">
     <path stroke="null" id="svg_3" fill="#0000ff" d="m364.66666,23.70895c-18.85831,-10.42328 -41.00024,-10.18228 -59.73804,0.15063l219.61203,202.59133l73.77643,-73.7764l-233.65042,-128.96555l0,-0.00001z"/>
    </g>
   </g>
   <g stroke="null" id="svg_4">
    <g stroke="null" id="svg_5">
     <path stroke="null" id="svg_6" fill="#0000ff" d="m282.96738,44.58564c-5.36224,8.76641 -8.43503,18.79808 -8.43503,29.43224l0,365.89951c0,10.30283 2.80161,20.12354 7.86264,28.70923l220.8472,-220.84718l-220.27481,-203.19382l0,0.00002l0,0.00001z"/>
    </g>
   </g>
   <g stroke="null" id="svg_7">
    <g stroke="null" id="svg_8">
     <path stroke="null" id="svg_9" fill="#0000ff" d="m695.19177,206.65871l-70.37219,-38.83125l-79.07831,79.04826l96.91229,89.38121l52.56842,-29.01047c18.91858,-10.48355 30.24567,-29.28162 30.24567,-50.30893c-0.03021,-21.02733 -11.32709,-39.82539 -30.27588,-50.27881l0,-0.00003l0,0.00002z"/>
    </g>
   </g>
   <g stroke="null" id="svg_10">
    <g stroke="null" id="svg_11">
     <path stroke="null" id="svg_12" fill="#0000ff" d="m525.38409,268.20428l-221.44962,221.44971c9.60986,5.48276 20.15369,8.37476 30.75769,8.37476c10.24255,0 20.54535,-2.59079 29.97449,-7.8024l251.15305,-138.60562l-90.43561,-83.41644z"/>
    </g>
   </g>
  </g>
  <text font-weight="bold" xml:space="preserve" text-anchor="start" font-family="Oswald, sans-serif" font-size="220" id="svg_29" y="769.39063" x="188.14844" stroke-width="0" fill="#000000">GPlay</text>
 </g>
</svg>