<svg width="1100" height="820" xmlns="http://www.w3.org/2000/svg">
 <g>
  <title>background</title>
  <rect x="-1" y="-1" width="1102" height="822" id="canvas_background" fill="none"/>
 </g>

 <g>
  <title>Layer 1</title>
  <g id="svg_1" stroke="null">
   <g id="svg_2" stroke="null">
    <g id="svg_3" stroke="null">
     <path d="m417.40289,379.70822c-11.66882,-6.27872 -16.01471,-20.853 -9.72412,-32.53403s20.85294,-16.02686 32.53421,-9.73618c27.5278,14.8504 58.10495,23.85425 89.41434,26.63943c1.53656,-30.26495 6.29059,-56.49628 10.8526,-75.4884l-61.98254,0l0,-24.01028c0,-72.54721 49.42529,-197.97704 70.67426,-248.57878l-239.27478,0c-26.41141,0 -48.02054,21.60927 -48.02054,48.02063l0,386.10975c0,26.41132 21.60913,48.02066 48.02054,48.02066l238.84247,0c-10.70862,-29.23257 -16.3869,-58.36911 -18.52399,-85.8129c-39.48489,-2.79718 -78.12946,-13.90201 -112.81244,-32.62991zm-9.2196,-233.52432c0,-11.39293 9.24377,-20.63688 20.63672,-20.63688c11.39297,0 20.63684,9.23199 20.63684,20.63688l0,30.01289c0,11.39288 -9.23215,20.63684 -20.63684,20.63684c-11.39294,0 -20.63672,-9.24396 -20.63672,-20.63684l0,-30.01289z" fill="#0000ff" id="svg_4" stroke="null"/>
     <path d="m790.12726,16.00002l-188.68512,0c-8.0675,18.41592 -62.58307,144.83017 -73.14764,224.56843l78.79004,0l-12.14923,32.42593c-0.24036,0.62427 -13.80609,38.41647 -16.95142,90.3147c30.32501,-3.68552 59.7616,-13.25363 86.29327,-28.33209c11.52484,-6.56683 26.20703,-2.53311 32.75006,9.00385c6.55432,11.52496 2.52142,26.18326 -9.00391,32.73804c-33.6264,19.1362 -71.05853,30.86526 -109.57123,34.80295c2.10107,24.55057 7.25116,50.40967 17.34766,75.95663c1.39246,3.51749 1.78845,7.15503 1.52435,10.6846l192.77887,0c26.41162,0 48.02069,-21.60934 48.02069,-48.02063l0,-386.12179c0.02411,-26.41136 -21.58502,-48.02063 -47.9964,-48.02063l0,0.00002l0,-0.00001zm-93.31622,160.56892c0,11.39293 -9.25586,20.63686 -20.6488,20.63686c-11.38086,0 -20.6369,-9.24393 -20.6369,-20.63686l0,-30.01289c0,-11.39287 9.23181,-20.63685 20.6369,-20.63685c11.39294,0 20.6488,9.24398 20.6488,20.63685l0,30.01289z" fill="#0000ff" id="svg_5" stroke="null"/>
    </g>
   </g>
  </g>
  <g id="svg_6"/>
  <g id="svg_7"/>
  <g id="svg_8"/>
  <g id="svg_9"/>
  <g id="svg_10"/>
  <g id="svg_11"/>
  <g id="svg_12"/>
  <g id="svg_13"/>
  <g id="svg_14"/>
  <g id="svg_15"/>
  <g id="svg_16"/>
  <g id="svg_17"/>
  <g id="svg_18"/>
  <g id="svg_19"/>
  <g id="svg_20"/>
  <text fill="#000000" stroke-width="0" x="170.90625" y="769.39063" id="svg_21" font-size="220" font-family="Oswald, sans-serif" text-anchor="start" xml:space="preserve" font-weight="bold">macOS</text>
 </g>
</svg>