<svg width="1000" height="820" xmlns="http://www.w3.org/2000/svg">
 <g>
  <title>background</title>
  <rect fill="none" id="canvas_background" height="822" width="1002" y="-1" x="-1"/>
 </g>

 <g>
  <title>Layer 1</title>
  <g stroke="null" id="svg_1">
   <g stroke="null" id="svg_2">
    <g stroke="null" id="svg_3">
     <path stroke="null" id="svg_4" fill="#0000ff" d="m367.40286,379.70822c-11.66882,-6.27872 -16.01468,-20.853 -9.72412,-32.53403s20.85297,-16.02686 32.53421,-9.73618c27.5278,14.8504 58.10495,23.85425 89.41434,26.63943c1.53656,-30.26495 6.29059,-56.49625 10.85263,-75.4884l-61.98257,0l0,-24.01028c0,-72.5472 49.42529,-197.97703 70.67429,-248.57877l-239.27478,0c-26.41144,0 -48.02057,21.60927 -48.02057,48.02063l0,386.10974c0,26.41132 21.60913,48.02066 48.02057,48.02066l238.84244,0c-10.70859,-29.23257 -16.3869,-58.36911 -18.52396,-85.81287c-39.48492,-2.79721 -78.12949,-13.90201 -112.81247,-32.62994zm-9.2196,-233.52432c0,-11.39293 9.2438,-20.63688 20.63675,-20.63688c11.39294,0 20.63681,9.23199 20.63681,20.63688l0,30.01289c0,11.39288 -9.23212,20.63684 -20.63681,20.63684c-11.39294,0 -20.63675,-9.24396 -20.63675,-20.63684l0,-30.01289z"/>
     <path stroke="null" id="svg_5" fill="#0000ff" d="m740.12726,16.00002l-188.68512,0c-8.0675,18.41592 -62.58307,144.83017 -73.14764,224.56844l78.79004,0l-12.14923,32.42593c-0.24036,0.62427 -13.80609,38.41647 -16.95142,90.3147c30.32501,-3.68552 59.7616,-13.25363 86.29327,-28.33209c11.52484,-6.56683 26.20703,-2.53311 32.75006,9.00385c6.55432,11.52496 2.52142,26.18326 -9.00391,32.73804c-33.6264,19.1362 -71.05853,30.86526 -109.57123,34.80295c2.10107,24.55054 7.25116,50.40964 17.34766,75.95663c1.39246,3.51749 1.78845,7.15503 1.52435,10.6846l192.77887,0c26.41162,0 48.02069,-21.60934 48.02069,-48.02063l0,-386.1218c0.02411,-26.41136 -21.58502,-48.02063 -47.9964,-48.02063l0,0.00002zm-93.31622,160.56892c0,11.39293 -9.25586,20.63686 -20.6488,20.63686c-11.38086,0 -20.6369,-9.24393 -20.6369,-20.63686l0,-30.01289c0,-11.39288 9.23181,-20.63685 20.6369,-20.63685c11.39294,0 20.6488,9.24397 20.6488,20.63685l0,30.01289z"/>
    </g>
   </g>
  </g>
  <g id="svg_6"/>
  <g id="svg_7"/>
  <g id="svg_8"/>
  <g id="svg_9"/>
  <g id="svg_10"/>
  <g id="svg_11"/>
  <g id="svg_12"/>
  <g id="svg_13"/>
  <g id="svg_14"/>
  <g id="svg_15"/>
  <g id="svg_16"/>
  <g id="svg_17"/>
  <g id="svg_18"/>
  <g id="svg_19"/>
  <g id="svg_20"/>
  <text font-weight="bold" xml:space="preserve" text-anchor="start" font-family="Oswald, sans-serif" font-size="220" id="svg_21" y="769.39063" x="120.90625" stroke-width="0" fill="#000000">macOS</text>
 </g>
</svg>