<svg width="1000" height="820" xmlns="http://www.w3.org/2000/svg">
 <g>
  <title>background</title>
  <rect x="-1" y="-1" width="1002" height="822" id="canvas_background" fill="none"/>
 </g>

 <g>
  <title>Layer 1</title>
  <g stroke="null" id="svg_1">
   <g stroke="null" id="svg_2">
    <g stroke="null" id="svg_3">
     <path stroke="null" d="m367.12781,381.46252c-11.69299,-6.29172 -16.04791,-20.89621 -9.74426,-32.60147s20.89618,-16.06012 32.60168,-9.75638c27.5849,14.8812 58.22543,23.90369 89.59976,26.69467c1.53979,-30.32773 6.30365,-56.61346 10.87515,-75.64496l-62.11115,0l0,-24.06009c0,-72.69765 49.52777,-198.38763 70.82086,-249.0943l-239.77106,0c-26.46617,0 -48.12012,21.65408 -48.12012,48.12022l0,386.91051c0,26.46609 21.65395,48.12024 48.12012,48.12024l239.33786,0c-10.73083,-29.29318 -16.4209,-58.49014 -18.56241,-85.99084c-39.5668,-2.80301 -78.29153,-13.93085 -113.04645,-32.6976zm-9.23871,-234.00862c0,-11.41655 9.26294,-20.67967 20.6795,-20.67967c11.41663,0 20.67966,9.25113 20.67966,20.67967l0,30.07515c0,11.4165 -9.25128,20.67963 -20.67966,20.67963c-11.41656,0 -20.6795,-9.26312 -20.6795,-20.67963l0,-30.07515z" fill="#0000ff" id="svg_4"/>
     <path stroke="null" d="m740.62531,17.00003l-189.0766,0c-8.08423,18.45411 -62.71277,145.13054 -73.29926,225.03418l78.95355,0l-12.1745,32.49316c-0.24097,0.62555 -13.83472,38.49615 -16.98663,90.50201c30.38788,-3.69315 59.88556,-13.28113 86.47223,-28.39084c11.54877,-6.58044 26.26147,-2.53839 32.81805,9.02249c6.56787,11.54889 2.52673,26.23758 -9.02271,32.80594c-33.69604,19.1759 -71.20581,30.92929 -109.79834,34.87512c2.10535,24.6015 7.26611,50.51422 17.38354,76.11417c1.39532,3.52481 1.79218,7.16989 1.52753,10.70679l193.17871,0c26.46631,0 48.12036,-21.65417 48.12036,-48.12024l0,-386.92258c0.02411,-26.46614 -21.62988,-48.12022 -48.09595,-48.12022l0,0.00002l0,-0.00001zm-93.50983,160.90192c0,11.41656 -9.27515,20.67967 -20.69165,20.67967c-11.40448,0 -20.67969,-9.26311 -20.67969,-20.67967l0,-30.07513c0,-11.4165 9.25092,-20.67964 20.67969,-20.67964c11.4165,0 20.69165,9.26314 20.69165,20.67964l0,30.07513z" fill="#0000ff" id="svg_5"/>
    </g>
   </g>
  </g>
  <g id="svg_6"/>
  <g id="svg_7"/>
  <g id="svg_8"/>
  <g id="svg_9"/>
  <g id="svg_10"/>
  <g id="svg_11"/>
  <g id="svg_12"/>
  <g id="svg_13"/>
  <g id="svg_14"/>
  <g id="svg_15"/>
  <g id="svg_16"/>
  <g id="svg_17"/>
  <g id="svg_18"/>
  <g id="svg_19"/>
  <g id="svg_20"/>
  <text transform="matrix(1 0 0 1 0 0)" fill="#000000" stroke-width="0" x="120.90625" y="769.39063" id="svg_21" font-size="220" font-family="Oswald, sans-serif" text-anchor="start" xml:space="preserve" font-weight="bold">macOS</text>
 </g>
</svg>