<svg width="1000" height="720" xmlns="http://www.w3.org/2000/svg">

 <g>
  <title>background</title>
  <rect fill="none" id="canvas_background" height="722" width="1002" y="-1" x="-1"/>
 </g>
 <g>
  <title>Layer 1</title>
  <g stroke="null" id="svg_1">
   <g stroke="null" id="svg_2">
    <g stroke="null" id="svg_3">
     <path stroke="null" id="svg_4" fill="#0000ff" d="m369.87787,356.91922c-11.45102,-6.16147 -15.71576,-20.46371 -9.5426,-31.9267s20.46371,-15.72772 31.92694,-9.55444c27.01395,14.57318 57.02036,23.40897 87.74533,26.14218c1.50787,-29.70004 6.17316,-55.44171 10.65005,-74.07935l-60.82562,0l0,-23.56213c0,-71.19301 48.50275,-194.28158 69.3551,-243.93878l-234.8085,0c-25.91846,0 -47.12424,21.20592 -47.12424,47.12428l0,378.90267c0,25.91833 21.20578,47.1243 47.12424,47.1243l234.38422,0c-10.5087,-28.68692 -16.08102,-57.2796 -18.17819,-84.21112c-38.74789,-2.74496 -76.67111,-13.64249 -110.70673,-32.0209zm-9.04752,-229.16533c0,-11.18024 9.07126,-20.25166 20.25156,-20.25166c11.1803,0 20.25162,9.05964 20.25162,20.25166l0,29.45265c0,11.18025 -9.05981,20.25168 -20.25162,20.25168c-11.1803,0 -20.25156,-9.07143 -20.25156,-20.25168l0,-29.45265z"/>
     <path stroke="null" id="svg_5" fill="#0000ff" d="m735.64496,0l-185.16309,0c-7.91687,18.07216 -61.41489,142.12679 -71.78226,220.37665l77.31931,0l-11.92236,31.82068c-0.23584,0.61261 -13.54846,37.6994 -16.63501,88.62894c29.75897,-3.61676 58.64606,-13.00629 84.68256,-27.80328c11.30969,-6.44427 25.71783,-2.48584 32.13867,8.83578c6.43201,11.30984 2.4743,25.69449 -8.83582,32.12695c-32.99866,18.77902 -69.73218,30.28912 -107.52594,34.15329c2.06189,24.09232 7.11578,49.46872 17.02374,74.53885c1.36658,3.45184 1.75519,7.02148 1.49603,10.48514l189.18048,0c25.91852,0 47.12433,-21.20596 47.12433,-47.12424l0,-378.91448c0.02362,-25.91836 -21.18213,-47.12428 -47.10065,-47.12428zm-91.57434,157.57176c0,11.18025 -9.08313,20.25165 -20.26343,20.25165c-11.1684,0 -20.25153,-9.0714 -20.25153,-20.25165l0,-29.45267c0,-11.18023 9.05939,-20.25165 20.25153,-20.25165c11.1803,0 20.26343,9.07142 20.26343,20.25165l0,29.45267z"/>
    </g>
   </g>
  </g>
  <g id="svg_6"/>
  <g id="svg_7"/>
  <g id="svg_8"/>
  <g id="svg_9"/>
  <g id="svg_10"/>
  <g id="svg_11"/>
  <g id="svg_12"/>
  <g id="svg_13"/>
  <g id="svg_14"/>
  <g id="svg_15"/>
  <g id="svg_16"/>
  <g id="svg_17"/>
  <g id="svg_18"/>
  <g id="svg_19"/>
  <g id="svg_20"/>
  <text font-weight="bold" xml:space="preserve" text-anchor="start" font-family="Oswald, sans-serif" font-size="220" id="svg_21" y="669.39063" x="120.90625" stroke-width="0" fill="#000000">macOS</text>
 </g>
</svg>