<?xml version="1.0" encoding="iso-8859-1"?>
<!-- Generator: Adobe Illustrator 16.0.0, SVG Export Plug-In . SVG Version: 6.00 Build 0)  -->
<!DOCTYPE svg PUBLIC "-//W3C//DTD SVG 1.1//EN" "http://www.w3.org/Graphics/SVG/1.1/DTD/svg11.dtd">
<svg xmlns="http://www.w3.org/2000/svg" xmlns:xlink="http://www.w3.org/1999/xlink" version="1.1" id="Capa_1" x="0px" y="0px" width="512px" height="512px" viewBox="0 0 48 48" style="enable-background:new 0 0 48 48;" xml:space="preserve">
<g>
	<g>
		<g>
			<path d="M12.955,34.214c-0.972-0.523-1.334-1.737-0.81-2.71s1.737-1.335,2.71-0.811c2.293,1.237,4.84,1.987,7.448,2.219     c0.128-2.521,0.524-4.706,0.904-6.288h-5.163v-2c0-6.043,4.117-16.491,5.887-20.706H4c-2.2,0-4,1.8-4,4v32.162c0,2.2,1.8,4,4,4     h19.895c-0.892-2.435-1.365-4.862-1.543-7.148C19.063,36.699,15.844,35.774,12.955,34.214z M12.187,14.762     c0-0.949,0.77-1.719,1.719-1.719c0.949,0,1.719,0.769,1.719,1.719v2.5c0,0.949-0.769,1.719-1.719,1.719     c-0.949,0-1.719-0.77-1.719-1.719V14.762z" fill="#0000ff"/>
			<path d="M44.002,3.918H28.285c-0.672,1.534-5.213,12.064-6.093,18.706h6.563l-1.012,2.701c-0.02,0.052-1.15,3.2-1.412,7.523     c2.526-0.307,4.978-1.104,7.188-2.36c0.96-0.547,2.183-0.211,2.728,0.75c0.546,0.96,0.21,2.181-0.75,2.727     c-2.801,1.594-5.919,2.571-9.127,2.899c0.175,2.045,0.604,4.199,1.445,6.327c0.116,0.293,0.149,0.596,0.127,0.89H44     c2.2,0,4-1.8,4-4V7.918C48.002,5.718,46.202,3.918,44.002,3.918z M36.229,17.293c0,0.949-0.771,1.719-1.72,1.719     c-0.948,0-1.719-0.77-1.719-1.719v-2.5c0-0.949,0.769-1.719,1.719-1.719c0.949,0,1.72,0.77,1.72,1.719V17.293z" fill="#0000ff"/>
		</g>
	</g>
</g>
<g>
</g>
<g>
</g>
<g>
</g>
<g>
</g>
<g>
</g>
<g>
</g>
<g>
</g>
<g>
</g>
<g>
</g>
<g>
</g>
<g>
</g>
<g>
</g>
<g>
</g>
<g>
</g>
<g>
</g>
</svg>
