<svg width="1000" height="720" xmlns="http://www.w3.org/2000/svg">

 <g>
  <title>background</title>
  <rect fill="none" id="canvas_background" height="722" width="1002" y="-1" x="-1"/>
 </g>
 <g>
  <title>Layer 1</title>
  <g stroke="null" id="svg_1">
   <g stroke="null" id="svg_2">
    <g stroke="null" id="svg_3">
     <path stroke="null" id="svg_4" fill="#0000ff" d="m681.01904,66.0477c-48.35205,-42.59218 -112.63904,-66.0477 -181.01904,-66.0477c-68.38,0 -132.668,23.45552 -181.01898,66.04682c-48.35303,42.5913 -74.98102,99.21996 -74.98102,159.45312s26.62799,116.86096 74.98102,159.45224c48.35098,42.59131 112.63898,66.04681 181.01898,66.04681c68.38104,0 132.66705,-23.45551 181.02002,-66.04773c48.35095,-42.59039 74.97998,-99.21906 74.97998,-159.45221s-26.62903,-116.86093 -74.98096,-159.45135zm-340.80304,18.70505c22.51099,-19.82903 48.93799,-34.95338 77.742,-44.82516c-7.672,8.43687 -14.85101,18.13425 -21.43002,29.04105c-7.64099,12.66676 -14.23398,26.57817 -19.72501,41.43737c-19.022,-2.78087 -36.64697,-6.20036 -52.39297,-10.21355c4.935,-5.34329 10.19998,-10.50161 15.806,-15.4397zm-33.987,38.20198c18.41699,5.19443 39.479,9.57495 62.461,13.04465c-6.39999,23.92943 -10.16699,49.67957 -11.06601,76.27448l-83.08801,0c2.36002,-31.91618 13.242,-62.3763 31.69302,-89.31912zm-1.63501,202.64427c-17.45499,-26.33679 -27.76898,-55.91779 -30.05899,-86.87294l83.146,0c0.98203,25.8347 4.67401,50.85286 10.858,74.15599c-23.45398,3.34903 -45.04498,7.61856 -63.94501,12.71695zm35.62201,40.64813c-6.38,-5.62076 -12.32202,-11.52252 -17.83099,-17.66562c16.323,-3.98679 34.57098,-7.3631 54.21399,-10.07089c5.53,15.06534 12.194,29.16086 19.92798,41.98355c7.17004,11.88541 15.05304,22.32889 23.51001,31.2749c-29.60999,-9.85068 -56.76901,-25.21811 -79.82098,-45.52194zm144.76801,54.90482c-22.80801,-5.62781 -44.38403,-23.97433 -61.93604,-53.07086c-6.13898,-10.17569 -11.53101,-21.27716 -16.14996,-33.10886c24.72998,-2.39771 51.04498,-3.815 78.086,-4.14798l0,90.3277zm0,-116.78253c-29.98804,0.36026 -59.21704,2.01892 -86.59003,4.85089c-6.03796,-21.98712 -9.67099,-45.78531 -10.668,-70.49339l97.259,0l0,65.6425l-0.00098,0zm0,-92.09647l-97.315,0c0.91098,-25.39868 4.60199,-49.86104 10.828,-72.40749c27.198,2.99492 56.36597,4.81654 86.487,5.338l0,67.06949zm0,-93.52609c-27.146,-0.48183 -53.40302,-2.04095 -77.95801,-4.58487c4.591,-11.70838 9.94098,-22.69798 16.02197,-32.78117c17.55103,-29.09654 39.12802,-47.44307 61.93604,-53.07088l0,90.43692zm209.73303,5.61283c17.87396,26.59577 28.42694,56.55027 30.74896,87.91326l-83.08795,0c-0.88904,-26.28836 -4.58405,-51.7496 -10.85004,-75.44295c23.133,-3.29088 44.45599,-7.4776 63.18903,-12.47031zm-34.93408,-39.60694c6.02899,5.3107 11.66101,10.87773 16.91406,16.65704c-16.073,3.86609 -33.97205,7.14729 -53.20404,9.7881c-5.54803,-15.15782 -12.24298,-29.33701 -20.01996,-42.22926c-6.57904,-10.9068 -13.75806,-20.60418 -21.42999,-29.04105c28.80194,9.87179 55.22998,24.99614 77.73993,44.82516zm-144.76697,153.97417l97.25903,0c-1.00403,24.90013 -4.68604,48.87886 -10.81006,71.00783c-27.19397,-2.97821 -56.34894,-4.78308 -86.44897,-5.29047l0,-65.71736zm0,-26.45396l0,-66.9814c30.005,-0.34706 59.25696,-1.99164 86.65601,-4.81302c6.125,22.37646 9.75598,46.62564 10.659,71.79442l-97.315,0zm-0.00195,-183.96302l0.00098,0c22.80798,5.62781 44.38403,23.97434 61.93604,53.07088c6.17798,10.24175 11.60095,21.42073 16.23999,33.33875c-24.76306,2.38889 -51.10803,3.79562 -78.177,4.11714l0,-90.52678zm0.00195,392.84201l0,-90.25104c27.12,0.4686 53.35699,2.01364 77.90295,4.54172c-4.57898,11.65552 -9.91095,22.59756 -15.96692,32.63846c-17.552,29.09656 -39.12805,47.44308 -61.93604,53.07086zm144.76697,-54.90482c-23.05096,20.30469 -50.20996,35.67126 -79.82098,45.52106c8.45697,-8.94601 16.34003,-19.38861 23.51001,-31.27402c7.62,-12.63242 14.198,-26.50333 19.67999,-41.3176c19.46503,2.8302 37.47302,6.32986 53.51501,10.44611c-5.24298,5.76611 -10.86603,11.32257 -16.88403,16.62445zm34.823,-39.44046c-18.63501,-5.27722 -40,-9.71765 -63.32599,-13.22171c6.29602,-23.50131 10.04803,-48.76434 11.04102,-74.85805l83.146,0c-2.32794,31.42729 -12.91797,61.44258 -30.86102,88.07976z"/>
    </g>
   </g>
   <g stroke="null" id="svg_5"/>
   <g stroke="null" id="svg_6"/>
   <g stroke="null" id="svg_7"/>
   <g stroke="null" id="svg_8"/>
   <g stroke="null" id="svg_9"/>
   <g stroke="null" id="svg_10"/>
   <g stroke="null" id="svg_11"/>
   <g stroke="null" id="svg_12"/>
   <g stroke="null" id="svg_13"/>
   <g stroke="null" id="svg_14"/>
   <g stroke="null" id="svg_15"/>
   <g stroke="null" id="svg_16"/>
   <g stroke="null" id="svg_17"/>
   <g stroke="null" id="svg_18"/>
   <g stroke="null" id="svg_19"/>
  </g>
  <text font-weight="bold" xml:space="preserve" text-anchor="start" font-family="Oswald, sans-serif" font-size="220" id="svg_21" y="669.39063" x="267.80469" stroke-width="0" fill="#000000">Web</text>
 </g>
</svg>