<svg width="1000" height="820" xmlns="http://www.w3.org/2000/svg">
 <g>
  <title>background</title>
  <rect x="-1" y="-1" width="1002" height="822" id="canvas_background" fill="none"/>
 </g>

 <g>
  <title>Layer 1</title>
  <g stroke="null" id="svg_1">
   <g stroke="null" id="svg_2">
    <g stroke="null" id="svg_3">
     <path stroke="null" d="m681.01904,93.26955c-48.35205,-44.66985 -112.63904,-69.26955 -181.01904,-69.26955c-68.38,0 -132.668,24.59969 -181.01898,69.26862c-48.35303,44.66892 -74.98102,104.05997 -74.98102,167.23135s26.62799,122.56149 74.98102,167.23041c48.35098,44.66891 112.63898,69.26859 181.01898,69.26859c68.38104,0 132.66705,-24.59967 181.02002,-69.26956c48.35095,-44.66797 74.97998,-104.05902 74.97998,-167.23038s-26.62903,-122.56148 -74.98096,-167.22948zm-340.80304,19.61749c22.51099,-20.7963 48.93799,-36.65842 77.742,-47.01175c-7.672,8.84843 -14.85101,19.01884 -21.43002,30.45769c-7.64099,13.28465 -14.23398,27.87466 -19.72501,43.45872c-19.022,-2.91653 -36.64697,-6.50284 -52.39297,-10.71178c4.935,-5.60395 10.19998,-11.01389 15.806,-16.19286l0,-0.00002zm-33.987,40.0655c18.41699,5.44781 39.479,10.04202 62.461,13.68097c-6.39999,25.09673 -10.16699,52.10298 -11.06601,79.99521l-83.08801,0c2.36002,-33.47308 13.242,-65.41907 31.69302,-93.67616l0,-0.00002zm-1.63501,212.52937c-17.45499,-27.62152 -27.76898,-58.64548 -30.05899,-91.11066l83.146,0c0.98203,27.09494 4.67401,53.3335 10.858,77.77338c-23.45398,3.51239 -45.04498,7.99017 -63.94501,13.33728zm35.62201,42.63098c-6.38,-5.89496 -12.32202,-12.08459 -17.83099,-18.52737c16.323,-4.18127 34.57098,-7.72226 54.21399,-10.56216c5.53,15.80023 12.194,30.58334 19.92798,44.03156c7.17004,12.46518 15.05304,23.41809 23.51001,32.80051c-29.60999,-10.33121 -56.76901,-26.44827 -79.82095,-47.74252l-0.00003,0zm144.76801,57.5831c-22.80801,-5.90234 -44.38403,-25.14383 -61.93604,-55.6597c-6.13898,-10.67206 -11.53101,-22.31506 -16.14996,-34.72394c24.72998,-2.51465 51.04498,-4.0011 78.086,-4.35031l0,94.73395zm0,-122.47925c-29.98804,0.37784 -59.21704,2.1174 -86.59003,5.08752c-6.03796,-23.05969 -9.67099,-48.01877 -10.668,-73.93213l97.259,0l0,68.8446l-0.00098,0zm0,-96.589l-97.315,0c0.91098,-26.63763 4.60199,-52.29327 10.828,-75.93958c27.198,3.14102 56.36597,5.0515 86.487,5.59839l0,70.34119zm0,-98.08833c-27.146,-0.50536 -53.40302,-2.14052 -77.95801,-4.80853c4.591,-12.27953 9.94098,-23.80521 16.02197,-34.38025c17.55103,-30.51589 39.12802,-49.75737 61.93604,-55.65971l0,94.84849zm209.73303,5.88661c17.87396,27.89313 28.42694,59.30882 30.74896,92.20172l-83.08795,0c-0.88904,-27.57072 -4.58405,-54.27397 -10.85004,-79.12309c23.133,-3.4514 44.45599,-7.84236 63.18903,-13.07863zm-34.93408,-41.53899c6.02899,5.56976 11.66101,11.40836 16.91406,17.46959c-16.073,4.05469 -33.97205,7.49593 -53.20404,10.26556c-5.54803,-15.89722 -12.24298,-30.76809 -20.01996,-44.28923c-6.57904,-11.43884 -13.75806,-21.60926 -21.42999,-30.45769c28.80194,10.35333 55.22998,26.21547 77.73993,47.01176l0,0.00001zm-144.76697,161.48511l97.25903,0c-1.00403,26.11478 -4.68604,51.26321 -10.81006,74.47165c-27.19397,-3.1235 -56.34894,-5.01642 -86.44897,-5.54855l0,-68.9231l0,0zm0,-27.74438l0,-70.24879c30.005,-0.36398 59.25696,-2.08879 86.65601,-5.04781c6.125,23.468 9.75598,48.90007 10.659,75.29659l-97.315,0l0,0.00002zm-0.00195,-192.93684l0.00098,0c22.80798,5.90234 44.38403,25.14382 61.93604,55.65971c6.17798,10.74134 11.60095,22.46565 16.23999,34.96503c-24.76306,2.50542 -51.10803,3.98077 -78.177,4.31798l0,-94.94273l0,0.00001zm0.00195,412.00508l0,-94.65353c27.12,0.49146 53.35699,2.11185 77.90295,4.76324c-4.57898,12.22409 -9.91095,23.69989 -15.96692,34.23059c-17.552,30.5159 -39.12805,49.75739 -61.93604,55.6597zm144.76697,-57.5831c-23.05096,21.29514 -50.20996,37.41132 -79.82098,47.74158c8.45697,-9.38239 16.34003,-20.33438 23.51001,-32.79956c7.62,-13.24866 14.198,-27.79617 19.67999,-43.3331c19.46503,2.96826 37.47302,6.63864 53.51501,10.95566c-5.24298,6.04739 -10.86603,11.87491 -16.88403,17.43542zm34.823,-41.36441c-18.63501,-5.53464 -40,-10.19168 -63.32599,-13.86667c6.29602,-24.64771 10.04803,-51.1431 11.04102,-78.50967l83.146,0c-2.32794,32.96036 -12.91797,64.43979 -30.86102,92.37634z" fill="#0000ff" id="svg_4"/>
    </g>
   </g>
   <g stroke="null" id="svg_5"/>
   <g stroke="null" id="svg_6"/>
   <g stroke="null" id="svg_7"/>
   <g stroke="null" id="svg_8"/>
   <g stroke="null" id="svg_9"/>
   <g stroke="null" id="svg_10"/>
   <g stroke="null" id="svg_11"/>
   <g stroke="null" id="svg_12"/>
   <g stroke="null" id="svg_13"/>
   <g stroke="null" id="svg_14"/>
   <g stroke="null" id="svg_15"/>
   <g stroke="null" id="svg_16"/>
   <g stroke="null" id="svg_17"/>
   <g stroke="null" id="svg_18"/>
   <g stroke="null" id="svg_19"/>
  </g>
  <text fill="#000000" stroke-width="0" x="267.80469" y="769.39063" id="svg_21" font-size="220" font-family="Oswald, sans-serif" text-anchor="start" xml:space="preserve" font-weight="bold">Web</text>
 </g>
</svg>