<?xml version="1.0" encoding="iso-8859-1"?>
<!-- Generator: Adobe Illustrator 21.0.0, SVG Export Plug-In . SVG Version: 6.00 Build 0)  -->
<svg version="1.1" id="Capa_1" xmlns="http://www.w3.org/2000/svg" xmlns:xlink="http://www.w3.org/1999/xlink" x="0px" y="0px"
	 viewBox="0 0 512 512" style="enable-background:new 0 0 512 512;" xml:space="preserve">
<g>
	<g>
		<g>
			<path d="M246.857,455.835v-81.371c-18.648,0.835-37.077,4.354-54.72,10.45C204.626,423.022,224.448,449.966,246.857,455.835z"/>
			<path d="M187.099,367.15c19.288-6.509,39.415-10.198,59.758-10.953v-54.482h-68.343
				C179.036,323.77,181.914,345.706,187.099,367.15z"/>
			<path d="M178.514,283.429h68.343v-54.482c-20.344-0.761-40.471-4.457-59.758-10.971
				C181.912,239.424,179.034,261.367,178.514,283.429z"/>
			<path d="M246.857,210.651V129.28c-22.409,5.87-42.231,32.814-54.72,70.958C209.782,206.321,228.211,209.828,246.857,210.651z"/>
			<path d="M319.863,384.914c-17.644-6.086-36.074-9.597-54.72-10.423v81.371C287.552,449.966,307.374,423.022,319.863,384.914z"/>
			<path d="M324.901,217.993c-19.288,6.509-39.415,10.198-59.758,10.953v54.482h68.343
				C332.964,261.373,330.086,239.437,324.901,217.993z"/>
			<path d="M333.486,301.714h-68.343v54.482c20.344,0.761,40.471,4.457,59.758,10.971
				C330.088,345.719,332.966,323.776,333.486,301.714z"/>
			<path d="M206.126,135.771c-23.73,7.618-45.42,20.526-63.433,37.751c9.979,7.828,20.816,14.496,32.302,19.877
				C181.491,172.333,192.069,152.752,206.126,135.771z"/>
			<path d="M142.693,411.621c18.013,17.224,39.703,30.133,63.433,37.751c-14.054-16.973-24.632-36.544-31.131-57.6
				C163.51,397.143,152.673,403.802,142.693,411.621z"/>
			<path d="M351.762,283.429h68.343c-1.901-35.49-15.303-69.396-38.181-96.594c-12.167,9.761-25.518,17.947-39.735,24.366
				C348.069,234.843,351.28,259.07,351.762,283.429z"/>
			<path d="M169.81,211.2c-14.216-6.413-27.566-14.593-39.735-24.347c-22.874,27.193-36.276,61.093-38.181,96.576h68.343
				C160.72,259.07,163.931,234.843,169.81,211.2z"/>
			<path d="M342.19,373.943c14.216,6.413,27.566,14.593,39.735,24.347c22.874-27.193,36.276-61.093,38.181-96.576h-68.343
				C351.28,326.073,348.069,350.3,342.19,373.943z"/>
			<path d="M305.874,449.371c23.73-7.618,45.42-20.526,63.433-37.751c-9.979-7.828-20.816-14.496-32.302-19.877
				C330.509,412.809,319.931,432.391,305.874,449.371z"/>
			<path d="M484.571,0H27.429C12.28,0,0,12.28,0,27.429v27.429h512V27.429C512,12.28,499.72,0,484.571,0z M45.714,36.571h-9.143
				c-5.049,0-9.143-4.093-9.143-9.143c0-5.049,4.093-9.143,9.143-9.143h9.143c5.049,0,9.143,4.093,9.143,9.143
				C54.857,32.478,50.764,36.571,45.714,36.571z M88.777,33.92c-0.889,0.807-1.91,1.456-3.017,1.92
				c-2.214,0.975-4.735,0.975-6.949,0c-1.108-0.464-2.128-1.113-3.017-1.92c-3.536-3.605-3.536-9.378,0-12.983
				c0.889-0.807,1.91-1.456,3.017-1.92c2.207-1.006,4.742-1.006,6.949,0c1.108,0.464,2.128,1.113,3.017,1.92
				C92.313,24.542,92.313,30.315,88.777,33.92z M127.269,30.903c-0.464,1.108-1.113,2.128-1.92,3.017
				c-3.605,3.536-9.378,3.536-12.983,0c-0.807-0.889-1.456-1.91-1.92-3.017c-0.976-2.213-0.976-4.735,0-6.949
				c0.464-1.108,1.113-2.128,1.92-3.017c2.616-2.637,6.567-3.43,9.998-2.006s5.658,4.783,5.637,8.497
				C128.032,28.628,127.781,29.818,127.269,30.903z M475.429,36.571H164.571c-5.049,0-9.143-4.093-9.143-9.143
				c0-5.049,4.093-9.143,9.143-9.143h310.857c5.049,0,9.143,4.093,9.143,9.143C484.571,32.478,480.478,36.571,475.429,36.571z"/>
			<path d="M265.143,129.307v81.371c18.648-0.835,37.077-4.354,54.72-10.45C307.374,162.121,287.552,135.177,265.143,129.307z"/>
			<path d="M0,484.571C0,499.72,12.28,512,27.429,512h457.143C499.72,512,512,499.72,512,484.571V73.143H0V484.571z
				 M121.225,169.362l0.037,0.018c0.223-0.467,0.486-0.913,0.786-1.335c0.417-0.388,0.874-0.731,1.362-1.024
				c34.401-36.559,82.372-57.289,132.571-57.289c50.199,0,98.171,20.73,132.571,57.289c0.489,0.293,0.945,0.636,1.362,1.024
				c0.3,0.421,0.563,0.868,0.786,1.335c64.159,69.597,64.159,176.785,0,246.382c-0.223,0.467-0.486,0.913-0.786,1.335
				c-0.397,0.344-0.826,0.65-1.28,0.914c-34.393,36.611-82.386,57.383-132.618,57.398c-50.232,0.016-98.238-20.727-132.653-57.316
				c-0.484-0.292-0.937-0.632-1.353-1.015c-0.3-0.421-0.563-0.868-0.786-1.335C57.066,346.147,57.066,238.959,121.225,169.362z"/>
			<path d="M169.81,373.943c-5.88-23.643-9.091-47.87-9.573-72.229H91.895c1.901,35.49,15.303,69.396,38.181,96.594
				C142.243,388.548,155.593,380.361,169.81,373.943z"/>
			<path d="M369.307,173.522c-18.013-17.224-39.703-30.133-63.433-37.751c14.054,16.973,24.632,36.544,31.131,57.6
				C348.49,188,359.327,181.341,369.307,173.522z"/>
		</g>
	</g>
</g>
<g>
</g>
<g>
</g>
<g>
</g>
<g>
</g>
<g>
</g>
<g>
</g>
<g>
</g>
<g>
</g>
<g>
</g>
<g>
</g>
<g>
</g>
<g>
</g>
<g>
</g>
<g>
</g>
<g>
</g>
</svg>
