<?xml version="1.0" standalone="no"?>
<!DOCTYPE svg PUBLIC "-//W3C//DTD SVG 20010904//EN"
 "http://www.w3.org/TR/2001/REC-SVG-20010904/DTD/svg10.dtd">
<svg version="1.0" xmlns="http://www.w3.org/2000/svg"
 width="1024.000000pt" height="1024.000000pt" viewBox="0 0 1024.000000 1024.000000"
 preserveAspectRatio="xMidYMid meet">
<metadata>
Created by potrace 1.11, written by Peter Selinger 2001-2013
</metadata>
<g transform="translate(0.000000,1024.000000) scale(0.100000,-0.100000)"
fill="#000000" stroke="none">
<path d="M816 10224 c-414 -82 -722 -392 -801 -807 -13 -70 -15 -568 -15
-4296 1 -2704 4 -4234 11 -4266 5 -27 12 -63 15 -79 27 -153 141 -355 273
-485 113 -112 240 -190 391 -241 153 -52 -90 -49 4430 -49 4541 0 4268 -3
4427 48 250 81 463 263 582 498 35 68 84 193 76 193 -3 0 -2 8 4 17 5 10 13
41 17 68 5 28 9 1967 9 4310 0 4096 -1 4262 -18 4324 -36 125 -78 229 -120
296 -157 250 -378 404 -667 466 -81 17 -261 18 -4315 18 -3535 -1 -4241 -3
-4299 -15z"/>
</g>
</svg>
